<svg aria-hidden="true" style="position: absolute; width: 0; height: 0; overflow: hidden;" version="1.1" xmlns="http://www.w3.org/2000/svg" xmlns:xlink="http://www.w3.org/1999/xlink">
<defs>
<symbol id="icon-advantages" viewBox="0 0 32 32">
<path fill="#212121" style="fill: var(--color1, #212121)" d="M31.296 15.301c-0.001-8.452-6.855-15.303-15.308-15.301s-15.303 6.855-15.301 15.308c0.002 6.788 4.422 12.543 10.541 14.545l0.108 0.031c0.061 0.019 0.123 0.029 0.187 0.029 0.12 0 0.238-0.032 0.342-0.094 0.135-0.080 0.236-0.207 0.283-0.357l3.865-12.25c1.054-0.004 1.906-0.859 1.906-1.913 0-1.056-0.856-1.913-1.913-1.913-0.303 0-0.59 0.071-0.845 0.196l0.011-0.005-5.106-5.107c-0.114-0.11-0.271-0.179-0.443-0.179-0.352 0-0.638 0.286-0.638 0.638 0 0.172 0.068 0.328 0.179 0.443l-0-0 5.103 5.109c-0.121 0.241-0.191 0.525-0.191 0.826 0 0.602 0.283 1.137 0.723 1.48l0.004 0.003-3.682 11.673c-7.278-2.681-11.004-10.754-8.324-18.032s10.754-11.004 18.032-8.323c7.278 2.681 11.004 10.754 8.323 18.032-1.345 3.581-4.003 6.406-7.374 7.938l-0.088 0.036-0.398-1.874c-0.063-0.291-0.318-0.506-0.624-0.506-0.164 0-0.313 0.062-0.426 0.163l0.001-0.001-3.837 3.426c-0.132 0.117-0.214 0.287-0.214 0.477 0 0.283 0.185 0.524 0.441 0.606l0.005 0.001 4.899 1.563c0.058 0.020 0.126 0.031 0.196 0.031 0.352 0 0.637-0.285 0.637-0.637 0-0.047-0.005-0.093-0.015-0.138l0.001 0.004-0.391-1.839c5.528-2.374 9.329-7.772 9.329-14.057 0-0.011 0-0.023-0-0.034v0.002zM15.992 14.664c0.352 0 0.638 0.286 0.638 0.638s-0.285 0.638-0.638 0.638v0c-0.352 0-0.638-0.286-0.638-0.638s0.286-0.638 0.638-0.638v0zM18.092 29.528l2.184-1.948 0.603 2.84-2.787-0.892z"></path>
<path fill="#2196f3" style="fill: var(--color2, #2196f3)" d="M15.354 3.185v1.275c0 0.352 0.286 0.638 0.638 0.638s0.638-0.285 0.638-0.638v0-1.275c0-0.352-0.285-0.638-0.638-0.638s-0.638 0.285-0.638 0.638v0zM3.876 14.664c-0.352 0-0.638 0.286-0.638 0.638s0.285 0.638 0.638 0.638h1.275c0.352 0 0.638-0.286 0.638-0.638s-0.285-0.638-0.638-0.638h-1.275zM28.108 15.939c0.352 0 0.638-0.286 0.638-0.638s-0.285-0.638-0.638-0.638h-1.275c-0.352 0-0.638 0.286-0.638 0.638s0.285 0.638 0.638 0.638h1.275z"></path>
</symbol>
<symbol id="icon-client" viewBox="0 0 57 32">
<path fill="#afb1b8" style="fill: var(--color3, #afb1b8)" d="M19.417 26.187c0.009 0 0.017 0.002 0.025 0.005s0.015 0.007 0.021 0.013l-0-0 0.116 0.111c-0.091 0.090-0.202 0.162-0.327 0.211-0.129 0.048-0.278 0.076-0.434 0.076-0.011 0-0.021-0-0.032-0l0.002 0c-0.149 0.003-0.298-0.021-0.436-0.071-0.128-0.046-0.237-0.114-0.33-0.2l0.001 0.001c-0.090-0.085-0.161-0.188-0.21-0.302l-0.002-0.006c-0.047-0.114-0.075-0.246-0.075-0.385 0-0.004 0-0.008 0-0.012v0.001c-0-0.006-0-0.013-0-0.020 0-0.272 0.118-0.516 0.305-0.684l0.001-0.001c0.099-0.087 0.218-0.155 0.349-0.201 0.143-0.048 0.296-0.072 0.45-0.070 0.008-0 0.018-0 0.028-0 0.139 0 0.273 0.024 0.398 0.067l-0.009-0.003c0.115 0.044 0.221 0.104 0.313 0.179l-0.098 0.118c-0.007 0.008-0.015 0.015-0.024 0.021l-0 0c-0.010 0.006-0.021 0.009-0.034 0.009-0.002 0-0.004-0-0.006-0l0 0c-0.016-0.001-0.030-0.005-0.043-0.012l0 0-0.052-0.032-0.073-0.041c-0.066-0.032-0.144-0.057-0.225-0.070l-0.005-0.001c-0.048-0.008-0.104-0.013-0.161-0.013-0.004 0-0.009 0-0.013 0h0.001c-0.003-0-0.007-0-0.011-0-0.112 0-0.219 0.020-0.319 0.055l0.007-0.002c-0.098 0.034-0.182 0.085-0.254 0.15l0.001-0.001c-0.073 0.068-0.128 0.149-0.164 0.237-0.038 0.089-0.059 0.193-0.059 0.302 0 0.004 0 0.008 0 0.011v-0.001c-0 0.004-0 0.008-0 0.013 0 0.11 0.022 0.215 0.061 0.311l-0.002-0.005c0.036 0.087 0.091 0.167 0.162 0.236 0.067 0.064 0.149 0.115 0.242 0.147 0.095 0.034 0.196 0.051 0.299 0.051 0.059 0.001 0.119-0.003 0.178-0.010 0.148-0.015 0.28-0.074 0.385-0.164l-0.001 0.001c0.015-0.012 0.034-0.020 0.055-0.020h0zM22.775 25.629c0 0.003 0 0.008 0 0.012 0 0.138-0.029 0.269-0.081 0.387l0.002-0.006c-0.052 0.12-0.126 0.222-0.218 0.304l-0.001 0.001c-0.097 0.086-0.211 0.154-0.337 0.198l-0.007 0.002c-0.132 0.045-0.284 0.071-0.442 0.071s-0.31-0.026-0.452-0.074l0.010 0.003c-0.132-0.047-0.245-0.115-0.342-0.202l0.001 0.001c-0.093-0.084-0.168-0.187-0.219-0.303l-0.002-0.006c-0.050-0.116-0.078-0.251-0.078-0.393s0.029-0.277 0.081-0.4l-0.003 0.007c0.050-0.115 0.125-0.22 0.221-0.309 0.097-0.085 0.213-0.15 0.341-0.194 0.132-0.046 0.284-0.072 0.442-0.072s0.31 0.026 0.452 0.075l-0.010-0.003c0.129 0.045 0.246 0.114 0.343 0.201 0.096 0.088 0.171 0.192 0.22 0.305 0.054 0.127 0.081 0.261 0.078 0.396zM22.47 25.629c0-0.005 0-0.011 0-0.017 0-0.108-0.020-0.211-0.058-0.305l0.002 0.006c-0.071-0.182-0.216-0.322-0.396-0.384l-0.005-0.001c-0.096-0.033-0.206-0.052-0.321-0.052s-0.225 0.019-0.329 0.054l0.007-0.002c-0.096 0.034-0.178 0.085-0.246 0.15l0-0c-0.068 0.064-0.122 0.143-0.156 0.232l-0.001 0.004c-0.035 0.094-0.055 0.202-0.055 0.316s0.020 0.222 0.058 0.322l-0.002-0.006c0.071 0.182 0.217 0.322 0.399 0.383l0.005 0.001c0.207 0.068 0.435 0.068 0.643 0 0.093-0.033 0.177-0.083 0.245-0.148 0.070-0.069 0.123-0.149 0.156-0.236 0.039-0.101 0.058-0.209 0.055-0.316zM25.067 25.96l0.031 0.070c0.011-0.025 0.021-0.048 0.033-0.070 0.013-0.027 0.026-0.050 0.039-0.072l-0.002 0.003 0.743-1.174c0.015-0.020 0.028-0.033 0.043-0.037s0.033-0.007 0.051-0.007c0.003 0 0.007 0 0.010 0l-0-0h0.22v1.909h-0.26v-1.463c-0.001-0.010-0.001-0.021-0.001-0.033s0-0.023 0.001-0.035l-0 0.002-0.748 1.19c-0.010 0.018-0.025 0.033-0.043 0.043l-0.001 0c-0.018 0.010-0.040 0.016-0.063 0.016-0 0-0.001 0-0.001 0h-0.042c-0 0-0.001 0-0.002 0-0.023 0-0.044-0.006-0.063-0.016l0.001 0c-0.018-0.010-0.033-0.025-0.043-0.043l-0-0.001-0.77-1.198v1.532h-0.251v-1.905h0.219c0.003-0 0.007-0 0.010-0 0.018 0 0.036 0.002 0.052 0.007l-0.001-0c0.018 0.008 0.032 0.021 0.041 0.037l0.759 1.175c0.014 0.020 0.026 0.042 0.037 0.066l0.001 0.003zM27.863 25.865v0.715h-0.29v-1.906h0.649c0.123-0.002 0.244 0.012 0.362 0.042 0.094 0.023 0.181 0.064 0.256 0.119 0.062 0.049 0.111 0.112 0.144 0.184l0.001 0.003c0.035 0.078 0.051 0.161 0.050 0.244 0 0.003 0 0.008 0 0.012 0 0.172-0.082 0.325-0.209 0.422l-0.001 0.001c-0.075 0.057-0.163 0.1-0.258 0.126-0.098 0.028-0.211 0.044-0.327 0.044-0.008 0-0.016-0-0.024-0l-0.351-0.005zM27.863 25.66h0.352c0.076 0.001 0.153-0.009 0.226-0.029 0.062-0.018 0.116-0.046 0.164-0.083l-0.001 0.001c0.082-0.068 0.133-0.169 0.133-0.282 0-0.002 0-0.003-0-0.005v0c0-0.006 0.001-0.013 0.001-0.021 0-0.049-0.011-0.095-0.030-0.137l0.001 0.002c-0.024-0.052-0.059-0.095-0.101-0.13l-0.001-0.001c-0.097-0.065-0.217-0.104-0.345-0.104-0.016 0-0.032 0.001-0.048 0.002l0.002-0h-0.352v0.786zM31.772 26.582h-0.229c-0.001 0-0.003 0-0.004 0-0.022 0-0.043-0.007-0.060-0.018l0 0c-0.016-0.011-0.029-0.026-0.038-0.044l-0-0.001-0.197-0.461h-0.994l-0.205 0.461c-0.018 0.037-0.055 0.062-0.099 0.062-0.001 0-0.002 0-0.003-0h-0.23l0.873-1.909h0.302l0.884 1.909zM30.332 25.874h0.82l-0.346-0.777c-0.027-0.059-0.048-0.118-0.066-0.179l-0.034 0.1c-0.010 0.030-0.021 0.059-0.032 0.081l-0.343 0.775zM33.029 24.683c0.017 0.008 0.032 0.020 0.043 0.034l1.273 1.439v-1.482h0.26v1.909h-0.145c-0.001 0-0.002 0-0.003 0-0.020 0-0.040-0.004-0.057-0.012l0.001 0c-0.018-0.009-0.034-0.021-0.047-0.035l-0-0-1.27-1.438c0.001 0.010 0.001 0.021 0.001 0.033s-0 0.023-0.001 0.034l0-0.002v1.419h-0.26v-1.909h0.154c0.018 0 0.036 0.003 0.052 0.009zM36.748 25.823v0.758h-0.291v-0.757l-0.804-1.15h0.26c0.002-0 0.004-0 0.006-0 0.021 0 0.040 0.006 0.056 0.016l-0-0c0.016 0.013 0.029 0.027 0.039 0.043l0.503 0.742c0.020 0.032 0.038 0.061 0.052 0.089s0.027 0.054 0.037 0.081l0.037-0.082c0.014-0.030 0.031-0.059 0.050-0.087l0.496-0.747c0.011-0.015 0.023-0.029 0.037-0.040l0-0c0.016-0.012 0.036-0.019 0.057-0.019 0.002 0 0.004 0 0.006 0h0.263l-0.805 1.155zM24.923 21.47c0.126 0.014 0.254 0.025 0.384 0.035 1.962-0.763 3.622-2.011 4.772-3.588s1.739-3.415 1.694-5.282l-2.162-1.878c0.439 1.988 0.234 4.043-0.594 5.935s-2.245 3.547-4.094 4.779z"></path>
<path fill="#afb1b8" style="fill: var(--color3, #afb1b8)" d="M24.151 21.382l0.058 0.011c1.975-1.228 3.481-2.942 4.323-4.922s0.981-4.133 0.4-6.181l-3.080-2.676c1.245 2.199 1.747 4.661 1.445 7.099-0.301 2.437-1.392 4.75-3.147 6.669zM34.596 14.841c-0.523 2.052-1.794 3.902-3.623 5.276-0.5 0.38-1.064 0.737-1.658 1.043l-0.065 0.030c1.49-0.38 2.859-1.053 4.003-1.966s2.030-2.042 2.592-3.3l-1.249-1.084z"></path>
<path fill="#afb1b8" style="fill: var(--color3, #afb1b8)" d="M34.106 14.539l-1.778-1.545c-0.034 1.762-0.611 3.483-1.669 4.986s-2.562 2.732-4.352 3.559h0.009c0.399 0 0.797-0.021 1.194-0.062 1.673-0.594 3.151-1.538 4.302-2.748s1.94-2.65 2.295-4.189zM24.409 6.485l-2.122-1.845c-1.897 0.637-3.527 1.756-4.68 3.212s-1.772 3.179-1.778 4.946c0.007 1.952 0.763 3.846 2.149 5.383 1.385 1.536 3.321 2.628 5.501 3.101 1.946-2.060 3.085-4.605 3.252-7.266s-0.647-5.299-2.323-7.531zM39.008 14.254c-0.007-2.316-1.070-4.535-2.955-6.173s-4.439-2.561-7.105-2.567c-0.006 0-0.014-0-0.021-0-1.281 0-2.512 0.213-3.66 0.606l0.079-0.024 12.989 11.286c0.423-0.919 0.671-1.995 0.672-3.128v-0z"></path>
</symbol>
<symbol id="icon-mail" viewBox="0 0 43 32">
<path  d="M38.667 0h-34.667c-2.205 0-4 1.795-4 4v24c0 2.205 1.795 4 4 4h34.667c2.205 0 4-1.795 4-4v-24c0-2.205-1.795-4-4-4zM38.667 2.667c0.181 0 0.355 0.037 0.512 0.104l-17.845 15.467-17.845-15.467c0.151-0.065 0.327-0.104 0.512-0.104h34.667zM38.667 29.333h-34.667c-0.736 0-1.333-0.597-1.333-1.333v0-22.413l17.792 15.421c0.233 0.203 0.539 0.327 0.875 0.327s0.642-0.124 0.876-0.328l-0.002 0.001 17.792-15.421v22.413c0 0.736-0.597 1.333-1.333 1.333v0z"></path>
</symbol>
<symbol id="icon-twitter" viewBox="0 0 32 32">
<path d="M32 6.078c-1.1 0.493-2.376 0.857-3.713 1.028l-0.068 0.007c1.36-0.817 2.382-2.078 2.873-3.579l0.013-0.046c-1.197 0.722-2.591 1.273-4.076 1.573l-0.084 0.014c-1.2-1.279-2.9-2.076-4.787-2.076-3.622 0-6.558 2.936-6.558 6.558 0 0.001 0 0.003 0 0.004v-0c0 0.52 0.043 1.021 0.152 1.496-5.454-0.266-10.28-2.88-13.522-6.861-0.564 0.949-0.899 2.092-0.902 3.313v0.001c0 2.272 1.171 4.286 2.914 5.451-1.091-0.030-2.107-0.325-2.994-0.823l0.033 0.017v0.072c0.003 3.165 2.236 5.807 5.213 6.44l0.043 0.008c-0.499 0.136-1.071 0.215-1.662 0.215-0.020 0-0.041-0-0.061-0l0.003 0c-0.419 0-0.843-0.024-1.242-0.112 0.85 2.598 3.261 4.509 6.13 4.57-2.215 1.746-5.045 2.8-8.122 2.8-0.004 0-0.008 0-0.013 0h0.001c-0.018 0-0.040 0-0.062 0-0.531 0-1.055-0.034-1.569-0.099l0.061 0.006c2.826 1.846 6.287 2.944 10.004 2.944 0.021 0 0.042-0 0.063-0h-0.003c12.072 0 18.672-10 18.672-18.669 0-0.288-0.010-0.57-0.024-0.848 1.299-0.936 2.39-2.064 3.258-3.355l0.030-0.047z"></path>
</symbol>
</defs>
</svg>
